<?xml version="1.0" encoding="UTF-8" standalone="no"?>
<!-- Created with Inkscape (http://www.inkscape.org/) -->

<svg
   width="35.931366mm"
   height="36.434296mm"
   viewBox="0 0 35.931366 36.434296"
   version="1.1"
   id="svg5"
   xmlns:inkscape="http://www.inkscape.org/namespaces/inkscape"
   xmlns:sodipodi="http://sodipodi.sourceforge.net/DTD/sodipodi-0.dtd"
   xmlns:xlink="http://www.w3.org/1999/xlink"
   xmlns="http://www.w3.org/2000/svg"
   xmlns:svg="http://www.w3.org/2000/svg">
  <sodipodi:namedview
     id="namedview7"
     pagecolor="#505050"
     bordercolor="#eeeeee"
     borderopacity="1"
     inkscape:showpageshadow="0"
     inkscape:pageopacity="0"
     inkscape:pagecheckerboard="0"
     inkscape:deskcolor="#505050"
     inkscape:document-units="mm"
     showgrid="false" />
  <defs
     id="defs2">
    <linearGradient
       inkscape:collect="always"
       id="linearGradient17503">
      <stop
         style="stop-color:#e7e7e7;stop-opacity:0;"
         offset="0.95616317"
         id="stop17499" />
      <stop
         style="stop-color:#c7c7c7;stop-opacity:1;"
         offset="0.95616317"
         id="stop17501" />
    </linearGradient>
    <linearGradient
       inkscape:collect="always"
       id="linearGradient14490">
      <stop
         style="stop-color:#872121;stop-opacity:0;"
         offset="0.95616317"
         id="stop14488" />
      <stop
         style="stop-color:#c7c7c7;stop-opacity:1;"
         offset="0.95616317"
         id="stop14486" />
    </linearGradient>
    <linearGradient
       id="linearGradient4761"
       inkscape:swatch="solid">
      <stop
         style="stop-color:#ff6600;stop-opacity:1;"
         offset="0"
         id="stop4759" />
    </linearGradient>
    <linearGradient
       inkscape:collect="always"
       id="linearGradient4626">
      <stop
         style="stop-color:#fff35f;stop-opacity:0.28391528;"
         offset="0.3305473"
         id="stop4622" />
      <stop
         style="stop-color:#ffe879;stop-opacity:0;"
         offset="1"
         id="stop4624" />
    </linearGradient>
    <linearGradient
       inkscape:collect="always"
       id="linearGradient4556">
      <stop
         style="stop-color:#f9c71f;stop-opacity:1;"
         offset="0.6600942"
         id="stop4554" />
      <stop
         style="stop-color:#ffa923;stop-opacity:1;"
         offset="1"
         id="stop4552" />
    </linearGradient>
    <linearGradient
       id="linearGradient4514"
       inkscape:swatch="solid">
      <stop
         style="stop-color:#ffff00;stop-opacity:1;"
         offset="0"
         id="stop4512" />
    </linearGradient>
    <linearGradient
       id="linearGradient4364"
       inkscape:swatch="solid">
      <stop
         style="stop-color:#ffff00;stop-opacity:1;"
         offset="0"
         id="stop4362" />
    </linearGradient>
    <radialGradient
       inkscape:collect="always"
       xlink:href="#linearGradient4556"
       id="radialGradient4558"
       cx="126.94194"
       cy="89.328568"
       fx="126.94194"
       fy="89.328568"
       r="7.7165427"
       gradientTransform="matrix(1,0,0,0.94540506,32.172639,21.628368)"
       gradientUnits="userSpaceOnUse"
       spreadMethod="reflect" />
    <radialGradient
       inkscape:collect="always"
       xlink:href="#linearGradient4626"
       id="radialGradient4628"
       cx="122.48734"
       cy="100.17408"
       fx="122.48734"
       fy="100.17408"
       r="7.7165427"
       gradientTransform="matrix(2.3334193,0,0,2.3556431,-125.62297,-129.46803)"
       gradientUnits="userSpaceOnUse" />
    <clipPath
       clipPathUnits="userSpaceOnUse"
       id="clipPath11318">
      <path
         id="path11320"
         style="fill:#ff0000;fill-opacity:1;fill-rule:nonzero;stroke:none;stroke-width:0.264583"
         d="m 144.63415,85.911931 -4.54264,36.068549 35.65714,5.12063 4.54264,-36.068549 -23.68801,-3.401774 c -0.0655,0.166724 -0.13282,0.332593 -0.20309,0.497391 -0.12769,0.299123 -0.28506,0.583877 -0.48198,0.842229 -0.0419,0.05508 -0.085,0.109849 -0.13383,0.158905 -0.0905,0.09087 -0.18882,0.17371 -0.28339,0.260341 -0.30279,0.237874 -0.63982,0.370272 -1.00986,0.465385 -0.14798,0.03804 -0.27265,0.0548 -0.42457,0.07965 -0.25287,0.04007 -0.51021,0.05102 -0.76288,0.09201 -0.18146,0.0311 -0.0384,0.0049 -0.0282,0.0079 0.009,0.0026 -0.0167,0.0061 -0.0252,0.0094 -0.0124,0.0049 -0.0249,0.01007 -0.0374,0.01495 -0.066,0.0258 -0.0438,0.01062 -0.0702,0.03106 -0.11795,0.05423 -0.2307,0.117372 -0.34123,0.18485 -0.12968,0.07802 -0.25632,0.160807 -0.38525,0.239984 -0.218,0.136412 -0.456,0.230856 -0.70313,0.301623 -0.23914,0.06635 -0.48785,0.07532 -0.73555,0.06156 -0.31283,-0.01449 -0.60601,-0.106361 -0.89288,-0.231348 -0.0384,-0.01805 -0.075,-0.03656 -0.11478,-0.05034 -0.002,-5.63e-4 0.006,0.003 0.004,0.0028 -0.005,-7.56e-4 -0.0189,-0.0062 -0.0141,-0.0042 0.008,0.0035 0.0157,0.0058 0.0235,0.0086 -0.0237,-0.0047 0.0116,0.0019 0.006,0.0031 -0.006,0.0012 -0.0135,-0.0025 -0.0194,-0.0038 -0.0347,-0.0077 -0.0689,-0.01552 -0.10352,-0.02372 -0.14973,-0.03545 -0.12561,-0.03588 -0.35168,-0.113526 -0.35143,-0.154047 -0.67885,-0.383172 -0.91073,-0.694842 -0.0616,-0.08284 -0.11591,-0.170872 -0.17396,-0.256229 -0.10674,-0.193017 -0.10746,-0.182222 -0.20334,-0.425028 -0.0223,-0.0568 -0.0445,-0.114017 -0.058,-0.173439 -0.0323,-0.142033 -0.0593,-0.285579 -0.0796,-0.429645 -0.022,-0.157175 -0.0102,-0.348504 -0.007,-0.503539 0.0231,-0.34141 0.0739,-0.683753 0.17072,-1.01141 0.0227,-0.07663 0.0491,-0.151938 0.0736,-0.227967 0.0327,-0.09763 0.0719,-0.19219 0.11519,-0.284494 z m 6.73329,2.272662 c -0.0193,0.0048 0.006,0.05388 0.002,3.02e-4 -5.5e-4,6.6e-5 -0.002,-4.34e-4 -0.002,-3.02e-4 z" />
    </clipPath>
    <clipPath
       clipPathUnits="userSpaceOnUse"
       id="clipPath11489">
      <path
         id="path11491"
         style="fill:#ff0000;fill-opacity:1;fill-rule:nonzero;stroke:none;stroke-width:0.264583"
         d="m 164.12486,76.622714 v 14.605828 h 15.41819 V 76.622714 Z m 0.26046,0.846976 c 0.002,-2.06e-4 0.003,8.2e-5 0.005,5.3e-4 0.007,0.0016 0.0147,0.0038 0.0217,0.0057 0.01,0.0024 0.0189,0.0049 0.0289,0.0072 0.007,0.0019 0.0142,0.0034 0.0222,0.0041 0.005,5.29e-4 0.01,5.29e-4 0.015,0.0011 0.001,2.38e-4 0.003,7.94e-4 0.005,0.0011 0.0151,0.0019 0.0131,0.01678 -0.002,0.01498 -0.002,-2.09e-4 -0.003,-2.65e-4 -0.005,-5.29e-4 -0.005,-5.29e-4 -0.009,-0.0011 -0.0145,-0.0016 -0.008,-7.94e-4 -0.0168,-0.0016 -0.0248,-0.0036 -0.01,-0.0024 -0.0189,-0.0053 -0.0289,-0.0078 -0.007,-0.0019 -0.0133,-0.0038 -0.0202,-0.0052 h -5.3e-4 c -0.0116,-0.0027 -0.0118,-0.01333 -0.004,-0.01551 5.3e-4,-1.24e-4 10e-4,-5.29e-4 0.002,-5.29e-4 z" />
    </clipPath>
    <radialGradient
       inkscape:collect="always"
       xlink:href="#linearGradient14490"
       id="radialGradient14492"
       cx="148.2579"
       cy="77.521133"
       fx="148.2579"
       fy="77.521133"
       r="5.610218"
       gradientTransform="matrix(0.69840376,0.02929412,-0.03329828,0.66137418,68.242658,21.424678)"
       gradientUnits="userSpaceOnUse" />
    <radialGradient
       inkscape:collect="always"
       xlink:href="#linearGradient17503"
       id="radialGradient14492-9"
       cx="148.2579"
       cy="77.521133"
       fx="148.2579"
       fy="77.521133"
       r="5.610218"
       gradientTransform="matrix(0.45420224,0.01847513,-0.01988071,0.52943371,99.384188,36.884601)"
       gradientUnits="userSpaceOnUse" />
  </defs>
  <g
     inkscape:label="Layer 1"
     inkscape:groupmode="layer"
     id="layer1"
     transform="translate(-153.86823,-66.342115)">
    <ellipse
       style="fill:url(#radialGradient4628);fill-opacity:1;fill-rule:evenodd;stroke-width:2.66511"
       id="path2329-5"
       cx="160.19138"
       cy="106.50638"
       rx="18.005928"
       ry="18.177422"
       transform="matrix(0.98979664,-0.14248721,0.12465945,0.99219959,-1.5490316e-6,1.7088473)"
       inkscape:export-filename="sun-rain.svg"
       inkscape:export-xdpi="96"
       inkscape:export-ydpi="96"
       clip-path="url(#clipPath11318)" />
    <path
       style="opacity:1;fill:url(#radialGradient14492);fill-opacity:1;fill-rule:nonzero;stroke-width:2.66488"
       id="path11988"
       sodipodi:type="arc"
       sodipodi:cx="169.20523"
       sodipodi:cy="77.038239"
       sodipodi:rx="5.0805779"
       sodipodi:ry="4.7190547"
       sodipodi:start="2.941565"
       sodipodi:end="0.15263817"
       sodipodi:arc-type="slice"
       d="m 164.22595,77.975898 a 5.0805779,4.7190547 0 0 1 2.08517,-4.816215 5.0805779,4.7190547 0 0 1 5.58717,-0.122989 5.0805779,4.7190547 0 0 1 2.32845,4.719059 l -5.02151,-0.717514 z" />
    <path
       style="fill:url(#radialGradient14492-9);fill-opacity:1;fill-rule:nonzero;stroke-width:2.66488"
       id="path11988-9"
       sodipodi:type="arc"
       sodipodi:cx="165.1821"
       sodipodi:cy="80.665985"
       sodipodi:rx="3.630614"
       sodipodi:ry="3.8127484"
       sodipodi:start="0.79279781"
       sodipodi:end="4.5354624"
       sodipodi:arc-type="arc"
       d="m 167.73026,83.381881 a 3.630614,3.8127484 0 0 1 -4.19098,0.684195 3.630614,3.8127484 0 0 1 -1.949,-3.955964 3.630614,3.8127484 0 0 1 2.95281,-3.197356"
       sodipodi:open="true" />
    <ellipse
       style="opacity:1;fill:#e7e7e7;fill-opacity:1;fill-rule:nonzero;stroke-width:2.66488"
       id="path14500"
       cx="155.6391"
       cy="79.053421"
       rx="0.028474614"
       ry="0.00049702619" />
  </g>
  <g
     inkscape:groupmode="layer"
     id="layer2"
     inkscape:label="Layer 2"
     clip-path="url(#clipPath11489)"
     transform="translate(-153.86823,-66.342115)">
    <ellipse
       style="opacity:1;fill:url(#radialGradient4558);fill-opacity:1;fill-rule:evenodd;stroke-width:2.66488"
       id="path2329"
       cx="159.11458"
       cy="106.08004"
       rx="7.7165427"
       ry="7.2952585"
       transform="rotate(-7.6595392)" />
  </g>
  <g
     inkscape:groupmode="layer"
     id="layer3"
     inkscape:label="Layer 3"
     transform="translate(-153.86823,-66.342115)">
    <g
       id="g11418">
      <rect
         style="opacity:1;fill:#3b00bd;fill-opacity:1;fill-rule:nonzero;stroke-width:2.66488"
         id="rect4747"
         width="1.0246303"
         height="9.108077"
         x="180.99658"
         y="83.925751"
         ry="0.69213754"
         rx="0.51231515" />
      <rect
         style="fill:#3b00bd;fill-opacity:1;fill-rule:nonzero;stroke-width:2.66488"
         id="rect4747-3"
         width="1.089487"
         height="7.412281"
         x="178.96597"
         y="83.927979"
         ry="0.69213754"
         rx="0.48648101" />
      <rect
         style="fill:#3b00bd;fill-opacity:1;fill-rule:nonzero;stroke-width:2.66488"
         id="rect4747-3-5"
         width="1.0873799"
         height="5.3997054"
         x="176.93747"
         y="83.98307"
         ry="0.69213754"
         rx="0.48648101" />
      <rect
         style="fill:#3b00bd;fill-opacity:1;fill-rule:nonzero;stroke-width:2.66488"
         id="rect4747-3-5-6"
         width="1.0624113"
         height="3.5151384"
         x="174.93393"
         y="83.974304"
         ry="0.69213754"
         rx="0.48648101" />
    </g>
  </g>
</svg>
